<svg xmlns="http://www.w3.org/2000/svg" width="518.967" height="193.735" viewBox="0 0 137.31 51.259"><defs><clipPath id="a"><path d="M0 500h500V0H0z"/></clipPath><clipPath id="c"><path d="M0 500h500V0H0z"/></clipPath><clipPath id="d"><path d="M276.92 359.96h150.97v-21.825H276.92z"/></clipPath><clipPath id="e"><path d="M363.68 359.96h80.927v-23.65H363.68z"/></clipPath><clipPath id="f"><path d="M396.58 359.96h48.03v-23.65h-48.03z"/></clipPath><clipPath id="h"><path d="M0 500h500V0H0z"/></clipPath><clipPath id="i"><path d="M279.5 319.88h54.675v-22.984H279.5z"/></clipPath><clipPath id="j"><path d="M310.1 317.9h43.948v-21.66H310.1z"/></clipPath><clipPath id="k"><path d="M325.04 319.88h29v-22.65h-29z"/></clipPath><clipPath id="r"><path d="M0 500h500V0H0z"/></clipPath><clipPath id="s"><path d="M82.22 387.61h70.77V342.5H82.22z"/></clipPath><clipPath id="t"><path d="M69 397.6h279.33V296.26H69z"/></clipPath><clipPath id="u"><path d="M175.67 397.6h215.9V296.24h-215.9z"/></clipPath><clipPath id="v"><path d="M223.7 397.6h167.87v-84.94H223.7z"/></clipPath><clipPath id="w"><path d="M68.994 397.6h216.78v-94.075H68.994z"/></clipPath><clipPath id="y"><path d="M0 500h500V0H0z"/></clipPath><clipPath id="z"><path d="M205.88 308.27H225v-22.151h-19.12z"/></clipPath><clipPath id="A"><path d="M214.75 304.77h15.526v-20.147H214.75z"/></clipPath><clipPath id="B"><path d="M214.53 308.27h15.75v-20.85h-15.75z"/></clipPath><clipPath id="I"><path d="M0 500h500V0H0z"/></clipPath><clipPath id="J"><path d="M58.262 323.63h55.272v-55.241H58.262z"/></clipPath><clipPath id="K"><path d="M69.575 314H97v-19.151H69.575z"/></clipPath><clipPath id="M"><path d="M0 500h500V0H0z"/></clipPath><clipPath id="N"><path d="M57.662 316.87h30.941v-47.883H57.662z"/></clipPath><clipPath id="O"><path d="M62.985 324.23h51.148v-14.044H62.985z"/></clipPath><clipPath id="U"><path d="M0 500h500V0H0z"/></clipPath><clipPath id="V"><path d="M96.332 332.7h25.128v-25.798H96.332z"/></clipPath><clipPath id="E"><path stroke-width=".353" d="M-2.599-17.619h176.39v176.39H-2.599z"/></clipPath><clipPath id="G"><path stroke-width=".353" d="M-2.599-17.619h176.39v176.39H-2.599z"/></clipPath><clipPath id="D"><path stroke-width=".353" d="M-2.599-17.619h176.39v176.39H-2.599z"/></clipPath><clipPath id="F"><path stroke-width=".353" d="M-2.599-17.619h176.39v176.39H-2.599z"/></clipPath><linearGradient id="b" x2="1" gradientTransform="matrix(167.69 0 0 -167.69 276.92 348.14)" gradientUnits="userSpaceOnUse"><stop offset="0" stop-color="#7c4694"/><stop offset="0" stop-color="#7c4694"/><stop offset="1" stop-color="#574595"/></linearGradient><linearGradient id="g" x2="1" gradientTransform="matrix(74.53 0 0 -74.53 279.51 308.06)" gradientUnits="userSpaceOnUse"><stop offset="0" stop-color="#7c4694"/><stop offset="0" stop-color="#7c4694"/><stop offset="1" stop-color="#574595"/></linearGradient><linearGradient id="l" x2="1" gradientTransform="matrix(48.344 0 0 -48.344 305.01 389.2)" gradientUnits="userSpaceOnUse"><stop offset="0" stop-color="#7c4694"/><stop offset="0" stop-color="#7c4694"/><stop offset="1" stop-color="#574595"/></linearGradient><linearGradient id="m" x2="1" gradientTransform="matrix(24.89 0 0 -24.89 144.75 288.29)" gradientUnits="userSpaceOnUse"><stop offset="0" stop-color="#7c4694"/><stop offset="0" stop-color="#7c4694"/><stop offset="1" stop-color="#574595"/></linearGradient><linearGradient id="n" x2="1" gradientTransform="matrix(7.0064 0 0 -7.0064 175.69 288.29)" gradientUnits="userSpaceOnUse"><stop offset="0" stop-color="#7c4694"/><stop offset="0" stop-color="#7c4694"/><stop offset="1" stop-color="#574595"/></linearGradient><linearGradient id="o" x2="1" gradientTransform="scale(119.303 -119.303) rotate(54.213 3.63 -1.17)" gradientUnits="userSpaceOnUse"><stop offset="0" stop-color="#7c4694"/><stop offset="0" stop-color="#7c4694"/><stop offset="1" stop-color="#574595"/></linearGradient><linearGradient id="p" x2="1" gradientTransform="scale(119.303 -119.303) rotate(54.213 4.045 -.958)" gradientUnits="userSpaceOnUse"><stop offset="0" stop-color="#7c4694"/><stop offset="0" stop-color="#7c4694"/><stop offset="1" stop-color="#574595"/></linearGradient><linearGradient id="q" x2="1" gradientTransform="scale(386.12 -386.12) rotate(52.833 1.327 -.17)" gradientUnits="userSpaceOnUse"><stop offset="0" stop-color="#5ed4ff"/><stop offset="0" stop-color="#5ed4ff"/><stop offset="1" stop-color="#3046bb"/></linearGradient><linearGradient id="x" x2="1" gradientTransform="scale(-318.12 318.12) rotate(-58.637 .625 1.321)" gradientUnits="userSpaceOnUse"><stop offset="0" stop-color="#7c4694"/><stop offset="0" stop-color="#7c4694"/><stop offset="1" stop-color="#574595"/></linearGradient><linearGradient id="C" x2="1" gradientTransform="matrix(51.66 0 0 -51.66 221.29 397.6)" gradientUnits="userSpaceOnUse"><stop offset="0" stop-color="#7c4694"/><stop offset="0" stop-color="#7c4694"/><stop offset="1" stop-color="#574595"/></linearGradient><linearGradient id="H" x2="1" gradientTransform="scale(-114.012 114.012) rotate(62.272 -2.204 .09)" gradientUnits="userSpaceOnUse"><stop offset="0" stop-color="#ff8f6d"/><stop offset="1" stop-color="#febb17"/></linearGradient><linearGradient id="L" x2="1" gradientTransform="scale(-114.012 114.012) rotate(62.272 -2.204 .09)" gradientUnits="userSpaceOnUse"><stop offset="0" stop-color="#ff8f6d"/><stop offset="1" stop-color="#febb17"/></linearGradient><linearGradient id="P" x2="1" gradientTransform="scale(70.18 -70.18) rotate(-77.487 -1.778 -3.128)" gradientUnits="userSpaceOnUse"><stop offset="0" stop-color="#ff8f6d"/><stop offset="1" stop-color="#febb17"/></linearGradient><linearGradient id="Q" x2="1" gradientTransform="matrix(15.206 68.514 68.514 -15.206 117.07 293.68)" gradientUnits="userSpaceOnUse"><stop offset="0" stop-color="#ff8f6d"/><stop offset="1" stop-color="#febb17"/></linearGradient><linearGradient id="R" x2="1" gradientTransform="scale(70.18 -70.18) rotate(-77.487 -1.83 -3.086)" gradientUnits="userSpaceOnUse"><stop offset="0" stop-color="#ff8f6d"/><stop offset="1" stop-color="#febb17"/></linearGradient><linearGradient id="S" x2="1" gradientTransform="matrix(15.206 68.514 68.514 -15.206 100.73 297.31)" gradientUnits="userSpaceOnUse"><stop offset="0" stop-color="#ff8f6d"/><stop offset="1" stop-color="#febb17"/></linearGradient><linearGradient id="T" x2="1" gradientTransform="scale(70.18 -70.18) rotate(-77.487 -2.006 -2.945)" gradientUnits="userSpaceOnUse"><stop offset="0" stop-color="#ff8f6d"/><stop offset="1" stop-color="#febb17"/></linearGradient><linearGradient id="W" x2="1" gradientTransform="scale(233.59 -233.59) rotate(-57.479 -.74 -.76)" gradientUnits="userSpaceOnUse"><stop offset="0" stop-color="#ff8f6d"/><stop offset="1" stop-color="#febb17"/></linearGradient><linearGradient id="X" x2="1" gradientTransform="scale(233.59 -233.59) rotate(-57.479 -.694 -.785)" gradientUnits="userSpaceOnUse"><stop offset="0" stop-color="#ff8f6d"/><stop offset="1" stop-color="#febb17"/></linearGradient><linearGradient id="Y" x2="1" gradientTransform="matrix(125.58 196.95 196.95 -125.58 163.1 168.2)" gradientUnits="userSpaceOnUse"><stop offset="0" stop-color="#ff8f6d"/><stop offset="1" stop-color="#febb17"/></linearGradient><linearGradient id="Z" x2="1" gradientTransform="scale(233.58 -233.58) rotate(-57.477 -.362 -.967)" gradientUnits="userSpaceOnUse"><stop offset="0" stop-color="#ff8f6d"/><stop offset="1" stop-color="#febb17"/></linearGradient><linearGradient id="aa" x2="1" gradientTransform="scale(233.58 -233.58) rotate(-57.477 -.977 -.63)" gradientUnits="userSpaceOnUse"><stop offset="0" stop-color="#ff8f6d"/><stop offset="1" stop-color="#febb17"/></linearGradient></defs><g clip-path="url(#a)" transform="matrix(.35278 0 0 -.35278 -19.54 144.43)"><path fill="#383838" d="M143.04 332.59h-1.976c-.627 0-1.24.06-1.832.175a40.271 40.271 0 0 1 3.808-.175"/></g><path fill="url(#b)" d="M288.74 359.96c-6.53 0-11.82-5.29-11.82-11.82 0-3.8 1.79-7.18 4.57-9.34 2-1.56 4.52-2.49 7.25-2.49h144.05c6.531 0 11.82 5.3 11.82 11.83s-5.289 11.82-11.82 11.82z" transform="matrix(.35278 0 0 -.35278 -19.54 144.43)"/><g clip-path="url(#c)" transform="matrix(.35278 0 0 -.35278 -19.54 144.43)"><g clip-path="url(#d)" opacity=".2"><path fill="#fff" d="M276.92 348.14c0 6.53 5.293 11.823 11.823 11.823h139.15c-132.49 0-145.32-21.825-145.32-21.825l-1.082.666a11.795 11.795 0 0 0-4.568 9.336"/></g><g clip-path="url(#e)" opacity=".2"><path fill="#1d1d1b" d="M444.61 348.14c0-6.53-5.293-11.827-11.823-11.827h-69.105c24.2 2.753 58.451 9.168 65.395 23.65h3.71c6.53 0 11.823-5.293 11.823-11.823"/></g><g clip-path="url(#f)" opacity=".2"><path fill="#1d1d1b" d="M444.61 348.14c0-6.53-5.29-11.83-11.82-11.83h-8.3c-6.57 11.06-17.88 18.69-27.91 23.65h36.21c6.53 0 11.82-5.29 11.82-11.82"/></g></g><path fill="url(#g)" d="M291.33 319.88c-4.89 0-9.1-2.97-10.89-7.22-.61-1.41-.931-2.97-.931-4.6 0-5.16 3.311-9.55 7.92-11.16 1.222-.43 2.531-.66 3.901-.66h50.89c1.681 0 3.28.35 4.73.99 4.18 1.82 7.09 5.98 7.09 10.83a11.82 11.82 0 0 1-5.259 9.84 11.802 11.802 0 0 1-6.561 1.98z" transform="matrix(.35278 0 0 -.35278 -19.54 144.43)"/><g clip-path="url(#h)" transform="matrix(.35278 0 0 -.35278 -19.54 144.43)"><g clip-path="url(#i)" opacity=".2"><path fill="#fff" d="M291.33 319.88h42.848c-51.788 0-46.75-22.985-46.75-22.985h-.004c-4.611 1.612-7.921 6.001-7.921 11.161 0 1.63.329 3.188.931 4.604a11.827 11.827 0 0 0 10.896 7.22"/></g><g clip-path="url(#j)" opacity=".2"><path fill="#1d1d1b" d="M353.11 312.66c.6-1.416.929-2.974.929-4.604 0-6.526-5.29-11.823-11.824-11.823H310.09c13.576 2.943 33.095 9.231 38.687 21.661a11.812 11.812 0 0 0 4.333-5.234"/></g><g clip-path="url(#k)" opacity=".2"><path fill="#1d1d1b" d="M353.11 312.66c.6-1.41.93-2.97.93-4.6 0-4.85-2.91-9.01-7.09-10.83-6.67 10.7-14.891 17.93-21.91 22.65h17.179a11.797 11.797 0 0 0 10.891-7.22"/></g></g><path fill="url(#l)" d="M308.51 395.05a3.503 3.503 0 0 1 0-7.006h28.979c3.729 0 7.287-1.353 10.019-3.807a3.498 3.498 0 0 1 4.947.263 3.504 3.504 0 0 1-.265 4.948c-4.02 3.612-9.241 5.602-14.701 5.602z" transform="matrix(.35278 0 0 -.35278 -19.54 144.43)"/><path fill="url(#m)" d="M148.25 291.79a3.503 3.503 0 1 1 0-7.006h17.883a3.504 3.504 0 0 1 0 7.006z" transform="matrix(.35278 0 0 -.35278 -19.54 144.43)"/><path fill="url(#n)" d="M178.52 291.72a3.574 3.574 0 0 1-1.262-.522 3.37 3.37 0 0 1-.966-.966 3.237 3.237 0 0 1-.323-.607 3.249 3.249 0 0 1-.199-.654 3.428 3.428 0 0 1-.071-.683c0-.229.025-.459.071-.684.042-.224.111-.445.199-.655.088-.214.193-.417.323-.606a3.376 3.376 0 0 1 .966-.967 3.525 3.525 0 0 1 1.945-.592c.227 0 .459.024.682.07.225.043.446.112.655.2.215.087.417.196.607.322.193.126.371.273.532.435.161.161.309.339.435.532.126.189.235.392.322.606.087.21.158.431.2.655a3.422 3.422 0 0 1-.2 2.021 3.424 3.424 0 0 1-1.289 1.573c-.19.126-.392.235-.607.322a3.422 3.422 0 0 1-1.338.268c-.228 0-.457-.022-.682-.068" transform="matrix(.35278 0 0 -.35278 -19.54 144.43)"/><path fill="url(#o)" d="M57.545 346.92a3.503 3.503 0 0 1 7.007 0c0 30.393 24.728 55.12 55.123 55.12a3.503 3.503 0 1 1 0 7.006c-34.259 0-62.13-27.87-62.13-62.126" transform="matrix(.35278 0 0 -.35278 -19.54 144.43)"/><path fill="url(#p)" d="M128.23 405.54a3.465 3.465 0 1 1 6.93 0 3.465 3.465 0 0 1-6.93 0" transform="matrix(.35278 0 0 -.35278 -19.54 144.43)"/><path fill="url(#q)" d="M119.67 397.6c-12.66 0-24.25-4.64-33.13-12.33a51.07 51.07 0 0 1-10.78-13.02c-.5-.87-.98-1.76-1.42-2.66a49.474 49.474 0 0 1-3.45-8.86c-.22-.81-.43-1.62-.62-2.43-.6-2.64-1-5.35-1.17-8.12-.06-.76-.09-1.52-.1-2.289-.01-.321-.01-.651-.01-.971a51.715 51.715 0 0 1 .75-8.74c2.56-14.7 11.44-27.22 23.74-34.66a50.259 50.259 0 0 1 21.61-7.07c1.51-.15 3.04-.21 4.58-.21h120.56c.209 0 .42.01.63.02 1.33.07 2.6.35 3.77.83a11.813 11.813 0 0 1 7.259 9.06h.16s.581 4.74 4.97 6.13c.751.24 1.62.38 2.611.38h20.81c1.79 4.25 6 7.22 10.89 7.22h50.89c4.9 0 9.1-2.97 10.891-7.22h26.63c6.528 0 11.829 5.3 11.829 11.83s-5.301 11.82-11.829 11.82H288.74c-1.72 0-3.35.37-4.82 1.03-.611.27-1.2.6-1.75.97a11.727 11.727 0 0 0-4.59 5.95c-.321.9-.53 1.85-.61 2.84-.029.34-.05.69-.05 1.04 0 1.94.47 3.76 1.29 5.38a11.819 11.819 0 0 0 9.91 6.42c.2.011.41.02.62.02h47.83c3.64 0 6.9 1.65 9.06 4.24h.01c.48.58.909 1.2 1.27 1.86a11.69 11.69 0 0 1 1.42 6.859v.011c-.061.69-.179 1.38-.37 2.08-.29 1.13-.76 2.28-1.401 3.42a9.986 9.986 0 0 1-3.949 3.87c-1.54.85-3.31 1.31-5.12 1.31h-35.81c-4.45 0-5.76 4.22-5.91 4.75-.01.04-.01.06-.01.06a11.831 11.831 0 0 1-11.52 9.18z" transform="matrix(.35278 0 0 -.35278 -19.54 144.43)"/><g clip-path="url(#r)" transform="matrix(.35278 0 0 -.35278 -19.54 144.43)"><g clip-path="url(#s)" opacity=".42"><path fill="#fff" d="M86.22 342.5a4 4 0 0 0-4 4c0 19.6 13.933 36.563 33.129 40.335a4 4 0 0 0 1.542-7.85c-15.454-3.036-26.671-16.698-26.671-32.485a4 4 0 0 0-4-4M148.99 379.61h-13.38a4 4 0 0 0 0 8h13.38a4 4 0 0 0 0-8"/></g><g clip-path="url(#t)" opacity=".2"><path fill="#fff" d="M124.38 358.6c-26.98-7.2-43.52-12.49-54.96-18.3.09-.71.2-1.42.32-2.12 11.31 5.89 27.79 11.18 55.15 18.48 35.84 9.58 51.69 27.01 58.69 40.94h-2.24c-7.04-13.39-22.61-29.83-56.96-39M132.63 397.6h-4.85c-3.65-1.5-7.85-2.93-12.69-4.22-10.7-2.86-20.14-5.5-28.55-8.11-1.15-.99-2.26-2.04-3.32-3.14 9.34 3 20.01 6.02 32.38 9.32 6.82 1.82 12.42 3.91 17.03 6.15"/><path fill="#fff" d="M173.26 397.6h-2.37c-7.14-10.78-21.2-22.93-48.84-30.31-24.44-6.52-40.86-11.53-52.95-17.11-.06-.76-.09-1.52-.1-2.29 12.06 5.72 28.57 10.79 53.57 17.47 29.14 7.79 43.56 20.85 50.69 32.24M149.42 397.6h-3.2c-6.42-4.82-15.63-9.4-28.81-12.92-16.88-4.51-30.42-8.41-41.65-12.43-.5-.87-.98-1.76-1.42-2.66 11.55 4.28 25.67 8.38 43.58 13.16 14.84 3.96 24.82 9.27 31.5 14.85"/><path fill="#fff" d="M162.17 397.6h-2.62c-8.42-9.47-21.93-16.83-39.82-21.61-21.26-5.67-36.81-10.35-48.84-15.26-.22-.81-.43-1.62-.62-2.43 12.12 5.09 27.94 9.88 49.98 15.76 22.27 5.94 34.84 14.97 41.92 23.54M314.65 383.61h-3.95c-8.231-5.12-16.95-12.79-25.49-24.19.919.29 1.9.47 2.91.52 8.969 11.54 18.07 18.96 26.53 23.67M276.97 347.1c-16.31-27.09-26.44-41.83-36.11-50.84 1.33.07 2.6.35 3.77.83 2.28 2.33 4.611 5 7.061 8.09.079.32.149.64.199.97h.16s.58 4.74 4.97 6.13c5.81 8.11 12.421 18.49 20.56 31.98-.32.9-.53 1.85-.61 2.84M307.91 328.72c-1.84-3.07-3.63-6.01-5.37-8.84h2.349c1.541 2.51 3.121 5.11 4.741 7.81 1.94 3.23 3.85 6.09 5.719 8.62h-2.46a111.79 111.79 0 0 1-4.979-7.59M302.03 336.31c-.61-.95-1.221-1.94-1.83-2.95-2.891-4.8-5.62-9.28-8.231-13.48h2.361c2.42 3.89 4.939 8.04 7.59 12.44.83 1.39 1.67 2.72 2.5 3.99zM323.86 359.96h3.859c7.101 3.93 13.311 4.62 17.911 4.24h.009c.481.58.91 1.2 1.271 1.86-5.63.68-13.76-.04-23.05-6.1M282.17 338.31c-6.16-10.16-11.47-18.59-16.3-25.65h2.42c4.66 6.88 9.76 15.01 15.63 24.68-.61.27-1.2.6-1.75.97M297.19 359.96h2.649c13.88 15.54 27.42 20.66 37.33 21.96 1.901.25 3.71.37 5.441.38-1.54.85-3.311 1.31-5.12 1.31h-2.521c-10.349-1.8-23.979-7.64-37.779-23.65M291.47 336.31c-5.47-9.06-10.33-16.87-14.8-23.65h2.401c4.46 6.82 9.309 14.63 14.739 23.65zM338.08 374.98c-7.62-1-17.73-4.66-28.54-15.02h2.94c8.17 7.41 16.84 11.82 25.73 13.02 3.79.51 7.22.37 10.12-.05a11.9 11.9 0 0 1-.37 2.08c-2.88.37-6.2.45-9.88-.03"/></g><g clip-path="url(#u)" opacity=".2"><path fill="#1d1d1b" d="M391.57 324.49c0-6.526-5.293-11.823-11.826-11.823h-26.625a11.819 11.819 0 0 1-10.895 7.22h-50.887a11.827 11.827 0 0 1-10.896-7.22h-20.802c-6.796 0-7.584-6.513-7.584-6.513h-.158c-.91-5.619-5.787-9.914-11.665-9.914h-64.558c66.109 30.786 92.888 78.132 102.5 101.36h6.065a11.822 11.822 0 0 0 11.521-9.182l.015-.053c.146-.528 1.46-4.757 5.906-4.757h35.806c3.727 0 7.241-1.93 9.07-5.178 5.156-9.157-1.331-18.468-9.991-18.468h-47.822c-6.531 0-11.824-5.294-11.824-11.824s5.293-11.827 11.824-11.827h90.996c6.533 0 11.826-5.289 11.826-11.823"/></g><g clip-path="url(#v)" opacity=".2"><path fill="#1d1d1b" d="M336.57 359.96h-47.83c-4.59 0-8.57-2.62-10.53-6.44-17.67 20.18-38.38 34.68-54.51 44.08h60.54a11.828 11.828 0 0 0 11.519-9.18s0-.02.01-.06c.151-.53 1.461-4.75 5.91-4.75h35.811c3.72 0 7.24-1.93 9.069-5.18 5.151-9.16-1.329-18.47-9.989-18.47M391.57 324.49c0-6.53-5.301-11.83-11.83-11.83h-26.63a11.802 11.802 0 0 1-10.891 7.22h-41.17a147.681 147.681 0 0 1-9.58 16.43h88.271c6.529 0 11.83-5.29 11.83-11.82"/></g><g clip-path="url(#w)" opacity=".2"><path fill="#fff" d="M285.77 397.5c-20.473-.676-137.73-4.806-170.28-11.725-35.701-7.588-46.968-62.746-22.008-82.248v-.004c-14.678 8.877-24.487 24.992-24.487 43.398 0 27.987 22.691 50.677 50.681 50.677h164.56c.518 0 1.029-.035 1.53-.098"/></g></g><path fill="url(#x)" d="M217.7 308.27c-1.1 0-2.16-.15-3.171-.43-4.999-1.39-8.659-5.96-8.659-11.39 0-1.81.41-3.53 1.14-5.06 1.05-2.23 2.78-4.07 4.93-5.27.87-.49 1.82-.87 2.81-1.13.939-.24 1.93-.37 2.95-.37h.75c2.92 0 5.59 1.06 7.65 2.799 1.28 1.09 2.32 2.441 3.05 3.971s1.129 3.25 1.129 5.06c0 3.24-1.309 6.19-3.439 8.32a11.788 11.788 0 0 1-8.39 3.5z" transform="matrix(.35278 0 0 -.35278 -19.54 144.43)"/><g clip-path="url(#y)" transform="matrix(.35278 0 0 -.35278 -19.54 144.43)"><g clip-path="url(#z)" opacity=".2"><path fill="#fff" d="M218.45 308.27c2.417 0 4.67-.725 6.541-1.976-18.925-2.687-13.05-20.175-13.05-20.175h-.007a11.868 11.868 0 0 0-4.932 5.273 11.783 11.783 0 0 0-1.132 5.055c0 6.53 5.293 11.823 11.824 11.823z"/></g><g clip-path="url(#A)" opacity=".2"><path fill="#1d1d1b" d="M226.84 304.77a11.766 11.766 0 0 0 3.433-8.324c0-1.807-.403-3.521-1.131-5.055-1.896-3.997-5.97-6.768-10.692-6.768h-.756c-1.017 0-2.008.129-2.947.371 4.575 3.202 10.233 9.186 12.093 19.776"/></g><g clip-path="url(#B)" opacity=".2"><path fill="#1d1d1b" d="M226.84 304.77c2.13-2.13 3.44-5.08 3.44-8.32 0-1.81-.4-3.53-1.13-5.06s-1.77-2.88-3.05-3.97c-2.44 11.19-7.57 17.25-11.57 20.42 1.01.28 2.07.43 3.17.43h.75a11.788 11.788 0 0 0 8.39-3.5"/></g></g><path fill="url(#C)" d="M233.11 409.42c-4.9 0-9.1-2.98-10.9-7.22-.6-1.41-.92-2.97-.92-4.6a11.817 11.817 0 0 1 11.82-11.83h28.01c6.54 0 11.83 5.3 11.83 11.83 0 1.63-.33 3.19-.93 4.6a11.865 11.865 0 0 1-6.94 6.54c-.26.099-.53.179-.79.251h-.01c-.999.279-2.061.429-3.16.429z" transform="matrix(.35278 0 0 -.35278 -19.54 144.43)"/><path fill="#fff" d="M89.52 14.336c.386 0 .76.052 1.114.15-14.988 0-12.856 7.754-12.856 7.754a4.168 4.168 0 0 1-1.985-5.357 4.174 4.174 0 0 1 3.844-2.547z" clip-path="url(#D)" opacity=".2" transform="translate(-16.941 -14.336)"/><g fill="#1d1d1b"><path d="M93.363 16.883a4.17 4.17 0 0 1-3.843 5.795h-6.166c3.06-1.612 7.193-4.442 7.561-8.104a4.186 4.186 0 0 1 2.448 2.309" clip-path="url(#E)" opacity=".2" transform="translate(-16.941 -14.336)"/><path d="M93.363 16.883a4.173 4.173 0 0 1-3.845 5.796h-.695c.279-2.356.282-5.514-.928-8.343h1.623c.388 0 .762.053 1.115.152h.003a4.186 4.186 0 0 1 2.727 2.395" clip-path="url(#F)" opacity=".2" transform="translate(-16.941 -14.336)"/><path d="m36.946 44.027-.024-.012.029-.03-.005.042m1.67 1.776-.025-.056c.03-.001.058-.002.087-.005l-.061.06m.253 2.393.008.005h-.009l.001-.005m3.223.093a1.574 1.574 0 0 0 1.446-1.689 1.578 1.578 0 0 0-1.691-1.447l-2.224.175-.048.006c.012-.011.025-.02.036-.032l.52-.51 1.072-1.054c.3-.294.467-.687.471-1.106a1.562 1.562 0 0 0-.45-1.117 1.562 1.562 0 0 0-1.123-.47c-.414 0-.805.159-1.101.45l-1.59 1.56-.034.038.007-.049.124-1.294.091-.928a1.572 1.572 0 0 0-1.57-1.721c-.813 0-1.484.611-1.56 1.42l-.215 2.219-.003.05c-.009-.013-.016-.028-.026-.041l-1.262-1.837a1.57 1.57 0 0 0-2.186-.408 1.574 1.574 0 0 0-.406 2.186l.394.572.866 1.264.021.026-12.117 4.04a3.777 3.777 0 0 0-2.568 3.16l-.003.022a3.778 3.778 0 0 0 1.56 3.504l1.888 1.353-1.146 1.146a3.073 3.073 0 0 0-.904 2.183c0 .826.322 1.602.904 2.184l1.256 1.256a3.07 3.07 0 0 0 2.188.907c.432 0 .853-.09 1.25-.265.35-.155.664-.37.933-.64l1.137-1.136 1.238 1.738c.034.047.069.091.105.135l.02.025a3.776 3.776 0 0 0 3.529 1.391A3.774 3.774 0 0 0 33.959 63l4.003-12.009c.024.02.046.039.072.057l.777.556 1.037.74c.268.192.584.293.915.293.504 0 .982-.245 1.282-.66.5-.705.336-1.688-.368-2.192L40.2 48.732l-.339-.243-.038-.025c.016 0 .032-.002.045-.003z" clip-path="url(#G)" opacity=".2" transform="translate(-16.941 -14.336)"/></g><path fill="url(#H)" d="m104.08 323.26-40.902-13.639a7.154 7.154 0 0 1-4.833-5.74 7.149 7.149 0 0 1 2.918-6.908l8.782-6.29-6.23-6.23a5.185 5.185 0 0 1 0-7.323l3.564-3.564a5.188 5.188 0 0 1 7.326-.002l6.213 6.213 5.96-8.37a7.147 7.147 0 0 1 6.914-2.935 7.186 7.186 0 0 1 4.014 2.016 7.163 7.163 0 0 1 1.734 2.815l13.624 40.872a7.142 7.142 0 0 1-1.736 7.348 7.14 7.14 0 0 1-7.348 1.737" transform="matrix(.35278 0 0 -.35278 -19.54 144.43)"/><g clip-path="url(#I)" transform="matrix(.35278 0 0 -.35278 -19.54 144.43)"><g clip-path="url(#J)" opacity=".3"><path fill="#fff" d="M97.803 270.49a7.175 7.175 0 0 0-4.014-2.017 7.15 7.15 0 0 0-6.914 2.936l-5.961 8.369-6.213-6.213a5.188 5.188 0 0 0-7.325.002l-3.564 3.564a5.186 5.186 0 0 0 0 7.323l6.229 6.23-8.78 6.29a7.145 7.145 0 0 0-2.918 6.908 7.15 7.15 0 0 0 4.831 5.74l40.903 13.639c2.597.864 5.413.2 7.349-1.736a7.178 7.178 0 0 0 1.917-3.426 7.157 7.157 0 0 0-.182-3.922l-13.624-40.873a7.152 7.152 0 0 0-1.734-2.814"/></g><g clip-path="url(#K)" opacity=".42"><path fill="#fff" d="M74.748 294.85c-.394 0-.792.116-1.139.357l-1.41.98a6.094 6.094 0 0 0-2.561 5.89 6.102 6.102 0 0 0 4.114 4.939l8.614 2.88a2 2 0 1 0 1.268-3.793l-8.61-2.879a2.093 2.093 0 0 1-1.426-1.715 2.082 2.082 0 0 1 .886-2.039l1.407-.977a2.002 2.002 0 0 0-1.143-3.643M90.069 308.35a2 2 0 0 0-.634 3.897l4.93 1.65a1.999 1.999 0 1 0 1.269-3.793l-4.93-1.65a1.983 1.983 0 0 0-.635-.104"/></g></g><path fill="url(#L)" d="m103.88 323.83-20.875-6.961-20.025-6.678a7.74 7.74 0 0 1-5.234-6.218 7.736 7.736 0 0 1 3.164-7.482l8.204-5.882-5.731-5.732a5.723 5.723 0 0 1-1.688-4.08c0-1.546.598-2.996 1.688-4.085l3.566-3.563a5.73 5.73 0 0 1 4.088-1.696c1.545 0 2.992.603 4.082 1.693l5.713 5.714 5.55-7.792a7.703 7.703 0 0 1 2.217-2.085 7.738 7.738 0 0 1 4.106-1.183 7.73 7.73 0 0 1 5.517 2.27 7.698 7.698 0 0 1 1.878 3.047l13.624 40.876c.105.315.189.637.252.96a7.648 7.648 0 0 1-.056 3.285 7.81 7.81 0 0 1-2.074 3.714 7.748 7.748 0 0 1-5.49 2.284c-.837 0-1.668-.14-2.476-.406m-33.13-46.88-3.566 3.563a.413.413 0 0 0-.119.284c0 .104.045.206.119.283l7.969 7.966c.557.558.845 1.331.781 2.127a2.71 2.71 0 0 1-1.113 1.962l-10.784 7.724a2.367 2.367 0 0 0-.974 2.312 2.363 2.363 0 0 0 1.616 1.924l18.409 6.133 13.403 4.471 9.091 3.03c.259.088.526.133.785.133.624 0 1.216-.256 1.675-.711a2.36 2.36 0 0 0 .609-2.364.841.841 0 0 0-.028-.098L94.999 274.82a2.362 2.362 0 0 0-1.923-1.622 2.368 2.368 0 0 0-2.316.984l-5.132 7.207-2.256 3.173a2.71 2.71 0 0 1-1.972 1.125 2.722 2.722 0 0 1-2.119-.777l-7.964-7.967a.408.408 0 0 0-.28-.113.39.39 0 0 0-.287.12" transform="matrix(.35278 0 0 -.35278 -19.54 144.43)"/><g clip-path="url(#M)" transform="matrix(.35278 0 0 -.35278 -19.54 144.43)"><g clip-path="url(#N)" opacity=".2"><path fill="#1d1d1b" d="M88.604 268.98a7.757 7.757 0 0 0-2.217 2.082l-5.549 7.791-5.713-5.713a5.732 5.732 0 0 0-4.084-1.689 5.73 5.73 0 0 0-4.088 1.693l-3.564 3.564a5.734 5.734 0 0 0-1.689 4.084c0 1.545.6 2.994 1.689 4.083l5.731 5.73-8.205 5.883a7.728 7.728 0 0 0-3.163 7.483 7.746 7.746 0 0 0 5.232 6.216l20.025 6.676c.012-1.744.033-3.636.084-5.637.207-8.885.853-19.92 2.542-29.843.761-4.456 1.732-8.687 2.969-12.403"/></g><g clip-path="url(#O)" opacity=".2"><path fill="#fff" d="M113.98 314.95s-1.562.543-5.325.834c-2.774.213-6.74.291-12.159-.088-7.858-.55-18.771-2.059-33.512-5.507l20.024 6.678 20.876 6.96a7.881 7.881 0 0 0 2.476.407 7.752 7.752 0 0 0 5.49-2.284 7.803 7.803 0 0 0 2.074-3.714c.256-1.079.277-2.2.056-3.286"/></g></g><path fill="url(#P)" d="M115.87 310.54a1.48 1.48 0 0 1 .347-2.063l2.2-1.573 2.946-2.102a1.482 1.482 0 0 1 2.063.344 1.48 1.48 0 0 1-.347 2.063l-4.186 2.988-.96.686a1.478 1.478 0 0 1-2.063-.343" transform="matrix(.35278 0 0 -.35278 -19.54 144.43)"/><path fill="url(#Q)" d="m125.52 319.8-4.064-.319-2.241-.175a1.474 1.474 0 0 1-1.356-1.588 1.476 1.476 0 0 1 1.587-1.359l.851.067 5.454.427a1.479 1.479 0 1 1-.231 2.947" transform="matrix(.35278 0 0 -.35278 -19.54 144.43)"/><path fill="url(#R)" d="m119.31 331.01-3.149-3.094-1.362-1.338a1.478 1.478 0 0 1-.022-2.091 1.478 1.478 0 0 1 1.055-.441c.374 0 .75.139 1.037.424l1.471 1.443 3.041 2.988a1.477 1.477 0 1 1-2.071 2.109" transform="matrix(.35278 0 0 -.35278 -19.54 144.43)"/><path fill="url(#S)" d="m107.34 335.61-.34-3.506-.27-2.789a1.478 1.478 0 1 1 2.943-.284l.354 3.672.256 2.624a1.478 1.478 0 0 1-1.484 1.619 1.472 1.472 0 0 1-1.459-1.336" transform="matrix(.35278 0 0 -.35278 -19.54 144.43)"/><path fill="url(#T)" d="M95.596 333.49a1.475 1.475 0 0 1-.381-2.053l1.117-1.626 2.463-3.591a1.47 1.47 0 0 1 1.218-.641 1.48 1.48 0 0 1 1.216 2.316l-1.71 2.487-1.87 2.726a1.47 1.47 0 0 1-2.053.382" transform="matrix(.35278 0 0 -.35278 -19.54 144.43)"/><g clip-path="url(#U)" transform="matrix(.35278 0 0 -.35278 -19.54 144.43)"><g clip-path="url(#V)" opacity=".2"><path fill="#1d1d1b" d="M101.23 327.9a1.48 1.48 0 0 0-1.216-2.315 1.47 1.47 0 0 0-1.219.641l-2.462 3.591c1.082.164 2.15.356 3.187.57zM107 332.1c1.114.256 2.133.466 3.027.599l-.354-3.671a1.478 1.478 0 0 0-1.471-1.339c-.046 0-.095.004-.144.007a1.479 1.479 0 0 0-1.328 1.615zM115.83 324.05a1.476 1.476 0 0 0-1.033 2.533l1.363 1.338c.665-.711 1.422-1.377 2.178-2.004l-1.471-1.443a1.468 1.468 0 0 0-1.037-.424M117.93 310.88l.96-.687a78.895 78.895 0 0 1-.477-3.292l-2.2 1.572a1.481 1.481 0 0 0-.346 2.064c.476.665 1.397.82 2.063.343M121.46 319.48c-.438-.918-.823-1.958-1.16-3.055l-.851-.067c-.038-.003-.077-.003-.115-.003a1.477 1.477 0 0 0-.116 2.95z"/></g></g><path fill="url(#W)" d="m184.71 406.93-13.908-13.907a1.578 1.578 0 0 1 2.231-2.23l13.906 13.907a1.576 1.576 0 1 1-2.229 2.23" transform="matrix(.35278 0 0 -.35278 -19.54 144.43)"/><path fill="url(#X)" d="m198.61 406.93-13.907-13.907a1.576 1.576 0 1 1 2.229-2.23l13.907 13.907a1.576 1.576 0 1 1-2.229 2.23" transform="matrix(.35278 0 0 -.35278 -19.54 144.43)"/><path fill="url(#Y)" d="m246 308.55-7.461-7.462a1.574 1.574 0 0 1 0-2.229l7.461-7.461a1.579 1.579 0 0 1 2.23 0l7.461 7.461a1.577 1.577 0 0 1 0 2.229l-7.461 7.462a1.58 1.58 0 0 1-2.23 0m-4.117-8.576 5.233 5.231 5.23-5.231-5.23-5.232z" transform="matrix(.35278 0 0 -.35278 -19.54 144.43)"/><path fill="url(#Z)" d="m289.96 398.6-2.43-2.428a1.58 1.58 0 0 1 0-2.23l2.43-2.428a1.573 1.573 0 0 1 2.228 0l2.429 2.428a1.575 1.575 0 0 1 0 2.23l-2.429 2.428c-.307.308-.71.462-1.114.462-.403 0-.807-.154-1.114-.462" transform="matrix(.35278 0 0 -.35278 -19.54 144.43)"/><path fill="url(#aa)" d="m68.672 346.4-4.388-4.387a1.576 1.576 0 0 1 0-2.229l4.388-4.388a1.576 1.576 0 0 1 2.229 0l4.387 4.388a1.574 1.574 0 0 1 0 2.229l-4.387 4.387a1.571 1.571 0 0 1-2.229 0m-1.043-5.502 2.157 2.158 2.158-2.158-2.158-2.157z" transform="matrix(.35278 0 0 -.35278 -19.54 144.43)"/></svg>